<mxfile host="app.diagrams.net" agent="Mozilla/5.0 (Windows NT 10.0; Win64; x64) AppleWebKit/537.36 (KHTML, like Gecko) Chrome/131.0.0.0 Safari/537.36" version="25.0.3">
  <diagram name="第 1 页" id="z-pMwa0vaHOrW9kPUHvC">
    <mxGraphModel dx="785" dy="512" grid="1" gridSize="10" guides="1" tooltips="1" connect="1" arrows="1" fold="1" page="0" pageScale="1" pageWidth="827" pageHeight="1169" math="0" shadow="0">
      <root>
        <mxCell id="0" />
        <mxCell id="1" parent="0" />
        <mxCell id="unDAAcIzVZFFCndOcYXw-54" style="edgeStyle=none;rounded=0;orthogonalLoop=1;jettySize=auto;html=1;exitX=1;exitY=0.5;exitDx=0;exitDy=0;entryX=0;entryY=0.5;entryDx=0;entryDy=0;elbow=vertical;" edge="1" parent="1" source="unDAAcIzVZFFCndOcYXw-2" target="unDAAcIzVZFFCndOcYXw-4">
          <mxGeometry relative="1" as="geometry" />
        </mxCell>
        <mxCell id="unDAAcIzVZFFCndOcYXw-60" style="edgeStyle=orthogonalEdgeStyle;rounded=0;orthogonalLoop=1;jettySize=auto;html=1;exitX=0.5;exitY=0;exitDx=0;exitDy=0;entryX=0;entryY=0.5;entryDx=0;entryDy=0;elbow=vertical;endArrow=classicThin;endFill=1;" edge="1" parent="1" source="unDAAcIzVZFFCndOcYXw-2" target="unDAAcIzVZFFCndOcYXw-3">
          <mxGeometry relative="1" as="geometry" />
        </mxCell>
        <mxCell id="unDAAcIzVZFFCndOcYXw-61" style="edgeStyle=orthogonalEdgeStyle;rounded=0;orthogonalLoop=1;jettySize=auto;html=1;exitX=0.5;exitY=1;exitDx=0;exitDy=0;entryX=0;entryY=0.5;entryDx=0;entryDy=0;elbow=vertical;endArrow=classicThin;endFill=1;" edge="1" parent="1" source="unDAAcIzVZFFCndOcYXw-2" target="unDAAcIzVZFFCndOcYXw-20">
          <mxGeometry relative="1" as="geometry" />
        </mxCell>
        <mxCell id="unDAAcIzVZFFCndOcYXw-62" style="edgeStyle=orthogonalEdgeStyle;rounded=0;orthogonalLoop=1;jettySize=auto;html=1;exitX=0.5;exitY=1;exitDx=0;exitDy=0;entryX=0;entryY=0.5;entryDx=0;entryDy=0;elbow=vertical;endArrow=classicThin;endFill=1;" edge="1" parent="1" source="unDAAcIzVZFFCndOcYXw-2" target="unDAAcIzVZFFCndOcYXw-19">
          <mxGeometry relative="1" as="geometry" />
        </mxCell>
        <mxCell id="unDAAcIzVZFFCndOcYXw-63" style="edgeStyle=orthogonalEdgeStyle;rounded=0;orthogonalLoop=1;jettySize=auto;html=1;exitX=0.5;exitY=0;exitDx=0;exitDy=0;entryX=0;entryY=0.5;entryDx=0;entryDy=0;elbow=vertical;endArrow=classicThin;endFill=1;" edge="1" parent="1" source="unDAAcIzVZFFCndOcYXw-2" target="unDAAcIzVZFFCndOcYXw-22">
          <mxGeometry relative="1" as="geometry" />
        </mxCell>
        <mxCell id="unDAAcIzVZFFCndOcYXw-65" style="edgeStyle=orthogonalEdgeStyle;rounded=0;orthogonalLoop=1;jettySize=auto;html=1;exitX=0.5;exitY=1;exitDx=0;exitDy=0;entryX=0.5;entryY=1;entryDx=0;entryDy=0;elbow=vertical;endArrow=classicThin;endFill=1;" edge="1" parent="1" source="unDAAcIzVZFFCndOcYXw-2" target="unDAAcIzVZFFCndOcYXw-8">
          <mxGeometry relative="1" as="geometry">
            <Array as="points">
              <mxPoint x="240" y="550" />
              <mxPoint x="720" y="550" />
            </Array>
          </mxGeometry>
        </mxCell>
        <mxCell id="unDAAcIzVZFFCndOcYXw-2" value="PGS" style="whiteSpace=wrap;html=1;" vertex="1" parent="1">
          <mxGeometry x="190" y="360" width="100" height="40" as="geometry" />
        </mxCell>
        <mxCell id="unDAAcIzVZFFCndOcYXw-66" style="rounded=0;orthogonalLoop=1;jettySize=auto;html=1;exitX=1;exitY=0.5;exitDx=0;exitDy=0;entryX=0;entryY=0.5;entryDx=0;entryDy=0;elbow=vertical;endArrow=classicThin;endFill=1;" edge="1" parent="1" source="unDAAcIzVZFFCndOcYXw-3" target="unDAAcIzVZFFCndOcYXw-8">
          <mxGeometry relative="1" as="geometry" />
        </mxCell>
        <mxCell id="unDAAcIzVZFFCndOcYXw-3" value="Parental Relationship&lt;div&gt;(Parent)&lt;/div&gt;" style="ellipse;whiteSpace=wrap;html=1;" vertex="1" parent="1">
          <mxGeometry x="510" y="230" width="100" height="60" as="geometry" />
        </mxCell>
        <mxCell id="unDAAcIzVZFFCndOcYXw-55" style="edgeStyle=none;rounded=0;orthogonalLoop=1;jettySize=auto;html=1;exitX=1;exitY=0.5;exitDx=0;exitDy=0;entryX=0;entryY=0.5;entryDx=0;entryDy=0;elbow=vertical;endArrow=classicThin;endFill=1;" edge="1" parent="1" source="unDAAcIzVZFFCndOcYXw-4" target="unDAAcIzVZFFCndOcYXw-3">
          <mxGeometry relative="1" as="geometry" />
        </mxCell>
        <mxCell id="unDAAcIzVZFFCndOcYXw-56" style="edgeStyle=none;rounded=0;orthogonalLoop=1;jettySize=auto;html=1;exitX=1;exitY=0.5;exitDx=0;exitDy=0;entryX=0;entryY=0.5;entryDx=0;entryDy=0;elbow=vertical;endArrow=classicThin;endFill=1;" edge="1" parent="1" source="unDAAcIzVZFFCndOcYXw-4" target="unDAAcIzVZFFCndOcYXw-22">
          <mxGeometry relative="1" as="geometry" />
        </mxCell>
        <mxCell id="unDAAcIzVZFFCndOcYXw-57" style="edgeStyle=none;rounded=0;orthogonalLoop=1;jettySize=auto;html=1;exitX=1;exitY=0.5;exitDx=0;exitDy=0;entryX=0;entryY=0.5;entryDx=0;entryDy=0;elbow=vertical;endArrow=classicThin;endFill=1;" edge="1" parent="1" source="unDAAcIzVZFFCndOcYXw-4" target="unDAAcIzVZFFCndOcYXw-19">
          <mxGeometry relative="1" as="geometry" />
        </mxCell>
        <mxCell id="unDAAcIzVZFFCndOcYXw-58" style="edgeStyle=none;rounded=0;orthogonalLoop=1;jettySize=auto;html=1;exitX=1;exitY=0.5;exitDx=0;exitDy=0;entryX=0;entryY=0.5;entryDx=0;entryDy=0;elbow=vertical;endArrow=classicThin;endFill=1;" edge="1" parent="1" source="unDAAcIzVZFFCndOcYXw-4" target="unDAAcIzVZFFCndOcYXw-20">
          <mxGeometry relative="1" as="geometry" />
        </mxCell>
        <mxCell id="unDAAcIzVZFFCndOcYXw-64" style="edgeStyle=orthogonalEdgeStyle;rounded=0;orthogonalLoop=1;jettySize=auto;html=1;exitX=1;exitY=0.5;exitDx=0;exitDy=0;entryX=0;entryY=0.5;entryDx=0;entryDy=0;elbow=vertical;endArrow=classicThin;endFill=1;" edge="1" parent="1" source="unDAAcIzVZFFCndOcYXw-4" target="unDAAcIzVZFFCndOcYXw-8">
          <mxGeometry relative="1" as="geometry" />
        </mxCell>
        <mxCell id="unDAAcIzVZFFCndOcYXw-70" style="edgeStyle=orthogonalEdgeStyle;rounded=0;orthogonalLoop=1;jettySize=auto;html=1;exitX=0.5;exitY=0;exitDx=0;exitDy=0;entryX=0.5;entryY=0;entryDx=0;entryDy=0;elbow=vertical;" edge="1" parent="1" source="unDAAcIzVZFFCndOcYXw-4" target="unDAAcIzVZFFCndOcYXw-8">
          <mxGeometry relative="1" as="geometry">
            <Array as="points">
              <mxPoint x="400" y="210" />
              <mxPoint x="720" y="210" />
            </Array>
          </mxGeometry>
        </mxCell>
        <mxCell id="unDAAcIzVZFFCndOcYXw-4" value="Adolescence&lt;div&gt;ASB/SUB&lt;/div&gt;" style="ellipse;whiteSpace=wrap;html=1;" vertex="1" parent="1">
          <mxGeometry x="350" y="350" width="100" height="60" as="geometry" />
        </mxCell>
        <mxCell id="unDAAcIzVZFFCndOcYXw-8" value="Young Adult&lt;div&gt;ASB/SUB&lt;/div&gt;" style="ellipse;whiteSpace=wrap;html=1;" vertex="1" parent="1">
          <mxGeometry x="670" y="350" width="100" height="60" as="geometry" />
        </mxCell>
        <mxCell id="unDAAcIzVZFFCndOcYXw-68" style="edgeStyle=none;rounded=0;orthogonalLoop=1;jettySize=auto;html=1;exitX=1;exitY=0.5;exitDx=0;exitDy=0;entryX=0;entryY=0.5;entryDx=0;entryDy=0;elbow=vertical;endArrow=classicThin;endFill=1;" edge="1" parent="1" source="unDAAcIzVZFFCndOcYXw-19" target="unDAAcIzVZFFCndOcYXw-8">
          <mxGeometry relative="1" as="geometry" />
        </mxCell>
        <mxCell id="unDAAcIzVZFFCndOcYXw-19" value="Delinquent Peer Affiliation" style="ellipse;whiteSpace=wrap;html=1;" vertex="1" parent="1">
          <mxGeometry x="510" y="390" width="100" height="60" as="geometry" />
        </mxCell>
        <mxCell id="unDAAcIzVZFFCndOcYXw-69" style="edgeStyle=none;rounded=0;orthogonalLoop=1;jettySize=auto;html=1;exitX=1;exitY=0.5;exitDx=0;exitDy=0;entryX=0;entryY=0.5;entryDx=0;entryDy=0;elbow=vertical;endArrow=classicThin;endFill=1;" edge="1" parent="1" source="unDAAcIzVZFFCndOcYXw-20" target="unDAAcIzVZFFCndOcYXw-8">
          <mxGeometry relative="1" as="geometry" />
        </mxCell>
        <mxCell id="unDAAcIzVZFFCndOcYXw-20" value="School Connectedness" style="ellipse;whiteSpace=wrap;html=1;" vertex="1" parent="1">
          <mxGeometry x="510" y="470" width="100" height="60" as="geometry" />
        </mxCell>
        <mxCell id="unDAAcIzVZFFCndOcYXw-67" style="rounded=0;orthogonalLoop=1;jettySize=auto;html=1;exitX=1;exitY=0.5;exitDx=0;exitDy=0;entryX=0;entryY=0.5;entryDx=0;entryDy=0;elbow=vertical;endArrow=classicThin;endFill=1;" edge="1" parent="1" source="unDAAcIzVZFFCndOcYXw-22" target="unDAAcIzVZFFCndOcYXw-8">
          <mxGeometry relative="1" as="geometry" />
        </mxCell>
        <mxCell id="unDAAcIzVZFFCndOcYXw-22" value="Parental Relationship&lt;div&gt;(Child&lt;span style=&quot;background-color: initial;&quot;&gt;)&lt;/span&gt;&lt;/div&gt;" style="ellipse;whiteSpace=wrap;html=1;" vertex="1" parent="1">
          <mxGeometry x="510" y="310" width="100" height="60" as="geometry" />
        </mxCell>
      </root>
    </mxGraphModel>
  </diagram>
</mxfile>
